REM DIRINDEX 1\2,1\3,1\4
REM DIRNAME folder01,folder02,folder03,folder04
TITLE ""
FILE "034 034_TOEFL_3900.mp3" MP3
  TRACK 01 AUDIO
    TITLE "2:cjc151_1461"
    INDEX 01 00:00:00
  TRACK 02 AUDIO
    TITLE "0:"
    INDEX 01 00:01:28
  TRACK 03 AUDIO
    TITLE "3:cjc151_1462"
    INDEX 01 00:03:06
  TRACK 04 AUDIO
    TITLE "0:"
    INDEX 01 00:06:47
  TRACK 05 AUDIO
    TITLE "2:cjc151_1463"
    INDEX 01 00:08:26
  TRACK 06 AUDIO
    TITLE "0:"
    INDEX 01 00:09:42
  TRACK 07 AUDIO
    TITLE "3:cjc151_1464"
    INDEX 01 00:11:21
  TRACK 08 AUDIO
    TITLE "0:"
    INDEX 01 00:14:31
  TRACK 09 AUDIO
    TITLE "2:cjc151_1465"
    INDEX 01 00:16:12
  TRACK 10 AUDIO
    TITLE "0:"
    INDEX 01 00:17:29
  TRACK 11 AUDIO
    TITLE "3:cjc151_1466"
    INDEX 01 00:19:09
  TRACK 12 AUDIO
    TITLE "0:"
    INDEX 01 00:22:72
  TRACK 13 AUDIO
    TITLE "2:cjc151_1467"
    INDEX 01 00:24:51
  TRACK 14 AUDIO
    TITLE "0:"
    INDEX 01 00:25:46
  TRACK 15 AUDIO
    TITLE "3:cjc151_1468"
    INDEX 01 00:27:24
  TRACK 16 AUDIO
    TITLE "0:"
    INDEX 01 00:31:04
  TRACK 17 AUDIO
    TITLE "2:cjc151_1469"
    INDEX 01 00:32:56
  TRACK 18 AUDIO
    TITLE "0:"
    INDEX 01 00:33:62
  TRACK 19 AUDIO
    TITLE "3:cjc151_1470"
    INDEX 01 00:35:33
  TRACK 20 AUDIO
    TITLE "0:"
    INDEX 01 00:40:01
  TRACK 21 AUDIO
    TITLE "2:cjc151_1471"
    INDEX 01 00:41:57
  TRACK 22 AUDIO
    TITLE "0:"
    INDEX 01 00:42:65
  TRACK 23 AUDIO
    TITLE "3:cjc151_1472"
    INDEX 01 00:44:44
  TRACK 24 AUDIO
    TITLE "0:"
    INDEX 01 00:48:14
  TRACK 25 AUDIO
    TITLE "2:cjc151_1473"
    INDEX 01 00:49:69
  TRACK 26 AUDIO
    TITLE "0:"
    INDEX 01 00:50:74
  TRACK 27 AUDIO
    TITLE "3:cjc151_1474"
    INDEX 01 00:52:49
  TRACK 28 AUDIO
    TITLE "0:"
    INDEX 01 00:56:57
  TRACK 29 AUDIO
    TITLE "2:cjc151_1475"
    INDEX 01 00:58:34
  TRACK 30 AUDIO
    TITLE "0:"
    INDEX 01 00:59:41
  TRACK 31 AUDIO
    TITLE "3:cjc151_1476"
    INDEX 01 01:01:19
  TRACK 32 AUDIO
    TITLE "0:"
    INDEX 01 01:05:01
  TRACK 33 AUDIO
    TITLE "2:cjc151_1477"
    INDEX 01 01:06:53
  TRACK 34 AUDIO
    TITLE "0:"
    INDEX 01 01:07:66
  TRACK 35 AUDIO
    TITLE "3:cjc151_1478"
    INDEX 01 01:09:44
  TRACK 36 AUDIO
    TITLE "0:"
    INDEX 01 01:14:23
  TRACK 37 AUDIO
    TITLE "2:cjc151_1479"
    INDEX 01 01:16:01
  TRACK 38 AUDIO
    TITLE "0:"
    INDEX 01 01:17:18
  TRACK 39 AUDIO
    TITLE "3:cjc151_1480"
    INDEX 01 01:18:68
  TRACK 40 AUDIO
    TITLE "0:"
    INDEX 01 01:22:56
  TRACK 41 AUDIO
    TITLE "2:cjc151_1481"
    INDEX 01 01:24:37
  TRACK 42 AUDIO
    TITLE "0:"
    INDEX 01 01:25:37
  TRACK 43 AUDIO
    TITLE "3:cjc151_1482"
    INDEX 01 01:27:10
  TRACK 44 AUDIO
    TITLE "0:"
    INDEX 01 01:31:49
  TRACK 45 AUDIO
    TITLE "2:cjc151_1483"
    INDEX 01 01:33:27
  TRACK 46 AUDIO
    TITLE "0:"
    INDEX 01 01:34:36
  TRACK 47 AUDIO
    TITLE "3:cjc151_1484"
    INDEX 01 01:36:11
  TRACK 48 AUDIO
    TITLE "0:"
    INDEX 01 01:39:15
  TRACK 49 AUDIO
    TITLE "2:cjc151_1485"
    INDEX 01 01:40:70
  TRACK 50 AUDIO
    TITLE "0:"
    INDEX 01 01:42:08
  TRACK 51 AUDIO
    TITLE "3:cjc151_1486"
    INDEX 01 01:43:62
  TRACK 52 AUDIO
    TITLE "0:"
    INDEX 01 01:47:42
  TRACK 53 AUDIO
    TITLE "2:cjc151_1487"
    INDEX 01 01:49:22
  TRACK 54 AUDIO
    TITLE "0:"
    INDEX 01 01:50:23
  TRACK 55 AUDIO
    TITLE "3:cjc151_1488"
    INDEX 01 01:51:72
  TRACK 56 AUDIO
    TITLE "0:"
    INDEX 01 01:55:26
  TRACK 57 AUDIO
    TITLE "2:cjc151_1489"
    INDEX 01 01:57:04
  TRACK 58 AUDIO
    TITLE "0:"
    INDEX 01 01:58:17
  TRACK 59 AUDIO
    TITLE "3:cjc151_1490"
    INDEX 01 01:59:69
  TRACK 60 AUDIO
    TITLE "0:"
    INDEX 01 02:03:51
  TRACK 61 AUDIO
    TITLE "2:cjc151_1491"
    INDEX 01 02:05:29
  TRACK 62 AUDIO
    TITLE "0:"
    INDEX 01 02:06:26
  TRACK 63 AUDIO
    TITLE "3:cjc151_1492"
    INDEX 01 02:08:03
  TRACK 64 AUDIO
    TITLE "0:"
    INDEX 01 02:11:35
  TRACK 65 AUDIO
    TITLE "2:cjc151_1493"
    INDEX 01 02:13:12
  TRACK 66 AUDIO
    TITLE "0:"
    INDEX 01 02:14:10
  TRACK 67 AUDIO
    TITLE "3:cjc151_1494"
    INDEX 01 02:15:64
  TRACK 68 AUDIO
    TITLE "0:"
    INDEX 01 02:19:74
  TRACK 69 AUDIO
    TITLE "2:cjc151_1495"
    INDEX 01 02:21:51
  TRACK 70 AUDIO
    TITLE "0:"
    INDEX 01 02:22:51
  TRACK 71 AUDIO
    TITLE "3:cjc151_1496"
    INDEX 01 02:24:30
  TRACK 72 AUDIO
    TITLE "0:"
    INDEX 01 02:28:41
  TRACK 73 AUDIO
    TITLE "2:cjc151_1497"
    INDEX 01 02:30:19
  TRACK 74 AUDIO
    TITLE "0:"
    INDEX 01 02:31:28
  TRACK 75 AUDIO
    TITLE "3:cjc151_1498"
    INDEX 01 02:33:07
  TRACK 76 AUDIO
    TITLE "0:"
    INDEX 01 02:37:17
  TRACK 77 AUDIO
    TITLE "2:cjc151_1499"
    INDEX 01 02:38:69
  TRACK 78 AUDIO
    TITLE "0:"
    INDEX 01 02:40:23
  TRACK 79 AUDIO
    TITLE "3:cjc151_1500"
    INDEX 01 02:42:02
  TRACK 80 AUDIO
    TITLE "0:"
    INDEX 01 02:45:73
  TRACK 81 AUDIO
    TITLE "2:cjc151_1501"
    INDEX 01 02:47:52
  TRACK 82 AUDIO
    TITLE "0:"
    INDEX 01 02:48:42
  TRACK 83 AUDIO
    TITLE "3:cjc151_1502"
    INDEX 01 02:50:21
  TRACK 84 AUDIO
    TITLE "0:"
    INDEX 01 02:54:11
  TRACK 85 AUDIO
    TITLE "2:cjc151_1503"
    INDEX 01 02:55:68
  TRACK 86 AUDIO
    TITLE "0:"
    INDEX 01 02:57:06
  TRACK 87 AUDIO
    TITLE "3:cjc151_1504"
    INDEX 01 02:58:62
  TRACK 88 AUDIO
    TITLE "0:"
    INDEX 01 03:02:58
